<svg xmlns="http://www.w3.org/2000/svg" viewBox="0 0 512 512">
  <defs>
    <linearGradient id="bg" x1="0%" y1="0%" x2="100%" y2="100%">
      <stop offset="0%" style="stop-color:#9333ea"/>
      <stop offset="100%" style="stop-color:#3b82f6"/>
    </linearGradient>
  </defs>
  <!-- Background -->
  <rect width="512" height="512" rx="96" fill="url(#bg)"/>
  <!-- Calendar body -->
  <rect x="96" y="140" width="320" height="280" rx="24" fill="white"/>
  <!-- Calendar header -->
  <rect x="96" y="140" width="320" height="72" rx="24" fill="white"/>
  <rect x="96" y="188" width="320" height="24" fill="white"/>
  <!-- Calendar rings -->
  <rect x="160" y="108" width="24" height="64" rx="12" fill="white"/>
  <rect x="328" y="108" width="24" height="64" rx="12" fill="white"/>
  <!-- House icon in calendar -->
  <path d="M256 240 L176 300 L176 380 L216 380 L216 330 L296 330 L296 380 L336 380 L336 300 Z" fill="#9333ea"/>
  <!-- House door -->
  <rect x="236" y="340" width="40" height="40" rx="4" fill="white"/>
  <!-- Heart on house (family) -->
  <path d="M256 270 C246 260 230 260 230 278 C230 290 256 310 256 310 C256 310 282 290 282 278 C282 260 266 260 256 270" fill="#ec4899"/>
</svg>
